<svg id="visual" viewBox="0 0 1980 1020" width="1980" height="1020" xmlns="http://www.w3.org/2000/svg" xmlns:xlink="http://www.w3.org/1999/xlink" version="1.1"><rect x="0" y="0" width="1980" height="1020" fill="#001220"></rect><path d="M0 630L47.2 635C94.3 640 188.7 650 283 666.2C377.3 682.3 471.7 704.7 566 687.3C660.3 670 754.7 613 848.8 599C943 585 1037 614 1131.2 619.2C1225.3 624.3 1319.7 605.7 1414 590.5C1508.3 575.3 1602.7 563.7 1697 562C1791.3 560.3 1885.7 568.7 1932.8 572.8L1980 577L1980 1021L1932.8 1021C1885.7 1021 1791.3 1021 1697 1021C1602.7 1021 1508.3 1021 1414 1021C1319.7 1021 1225.3 1021 1131.2 1021C1037 1021 943 1021 848.8 1021C754.7 1021 660.3 1021 566 1021C471.7 1021 377.3 1021 283 1021C188.7 1021 94.3 1021 47.2 1021L0 1021Z" fill="#ff6c00"></path><path d="M0 651L47.2 676.3C94.3 701.7 188.7 752.3 283 749.2C377.3 746 471.7 689 566 683.5C660.3 678 754.7 724 848.8 741C943 758 1037 746 1131.2 721.2C1225.3 696.3 1319.7 658.7 1414 655.2C1508.3 651.7 1602.7 682.3 1697 689.5C1791.3 696.7 1885.7 680.3 1932.8 672.2L1980 664L1980 1021L1932.8 1021C1885.7 1021 1791.3 1021 1697 1021C1602.7 1021 1508.3 1021 1414 1021C1319.7 1021 1225.3 1021 1131.2 1021C1037 1021 943 1021 848.8 1021C754.7 1021 660.3 1021 566 1021C471.7 1021 377.3 1021 283 1021C188.7 1021 94.3 1021 47.2 1021L0 1021Z" fill="#ff9500"></path><path d="M0 759L47.2 768C94.3 777 188.7 795 283 795.5C377.3 796 471.7 779 566 789.7C660.3 800.3 754.7 838.7 848.8 848.7C943 858.7 1037 840.3 1131.2 821.3C1225.3 802.3 1319.7 782.7 1414 778C1508.3 773.3 1602.7 783.7 1697 784C1791.3 784.3 1885.7 774.7 1932.8 769.8L1980 765L1980 1021L1932.8 1021C1885.7 1021 1791.3 1021 1697 1021C1602.7 1021 1508.3 1021 1414 1021C1319.7 1021 1225.3 1021 1131.2 1021C1037 1021 943 1021 848.8 1021C754.7 1021 660.3 1021 566 1021C471.7 1021 377.3 1021 283 1021C188.7 1021 94.3 1021 47.2 1021L0 1021Z" fill="#ffbb00"></path><path d="M0 938L47.2 931.7C94.3 925.3 188.7 912.7 283 915.7C377.3 918.7 471.7 937.3 566 927.2C660.3 917 754.7 878 848.8 871.5C943 865 1037 891 1131.2 902.3C1225.3 913.7 1319.7 910.3 1414 913.3C1508.3 916.3 1602.7 925.7 1697 914.8C1791.3 904 1885.7 873 1932.8 857.5L1980 842L1980 1021L1932.8 1021C1885.7 1021 1791.3 1021 1697 1021C1602.7 1021 1508.3 1021 1414 1021C1319.7 1021 1225.3 1021 1131.2 1021C1037 1021 943 1021 848.8 1021C754.7 1021 660.3 1021 566 1021C471.7 1021 377.3 1021 283 1021C188.7 1021 94.3 1021 47.2 1021L0 1021Z" fill="#ffe000"></path></svg>